<?xml version="1.0" encoding="UTF-8" standalone="no"?>
<!-- Created with Inkscape (http://www.inkscape.org/) -->

<svg
   width="128"
   height="128"
   viewBox="0 0 33.866666 33.866666"
   version="1.1"
   id="svg8"
   inkscape:version="1.4 (e7c3feb100, 2024-10-09)"
   inkscape:export-xdpi="600.55133"
   inkscape:export-ydpi="600.55133"
   sodipodi:docname="sipua.svg"
   xmlns:inkscape="http://www.inkscape.org/namespaces/inkscape"
   xmlns:sodipodi="http://sodipodi.sourceforge.net/DTD/sodipodi-0.dtd"
   xmlns:xlink="http://www.w3.org/1999/xlink"
   xmlns="http://www.w3.org/2000/svg"
   xmlns:svg="http://www.w3.org/2000/svg"
   xmlns:rdf="http://www.w3.org/1999/02/22-rdf-syntax-ns#"
   xmlns:cc="http://creativecommons.org/ns#"
   xmlns:dc="http://purl.org/dc/elements/1.1/">
  <defs
     id="defs2">
    <linearGradient
       id="linearGradient14"
       inkscape:collect="always">
      <stop
         style="stop-color:#646464;stop-opacity:1;"
         offset="0"
         id="stop14" />
      <stop
         style="stop-color:#3c3c28;stop-opacity:1;"
         offset="1"
         id="stop15" />
    </linearGradient>
    <linearGradient
       id="linearGradient10"
       inkscape:collect="always">
      <stop
         style="stop-color:#646464;stop-opacity:1;"
         offset="0"
         id="stop10" />
      <stop
         style="stop-color:#3c3c28;stop-opacity:1;"
         offset="1"
         id="stop11" />
    </linearGradient>
    <linearGradient
       id="linearGradient7"
       inkscape:collect="always">
      <stop
         style="stop-color:#306998;stop-opacity:1;"
         offset="0"
         id="stop7" />
      <stop
         style="stop-color:#306998;stop-opacity:1;"
         offset="1"
         id="stop8" />
    </linearGradient>
    <linearGradient
       id="linearGradient3"
       inkscape:collect="always">
      <stop
         style="stop-color:#ffe873;stop-opacity:1;"
         offset="0"
         id="stop3" />
      <stop
         style="stop-color:#ffd43b;stop-opacity:1;"
         offset="1"
         id="stop4" />
    </linearGradient>
    <linearGradient
       inkscape:collect="always"
       xlink:href="#linearGradient3"
       id="linearGradient4"
       x1="13.287"
       y1="265.29965"
       x2="15.19231"
       y2="265.29965"
       gradientUnits="userSpaceOnUse"
       gradientTransform="matrix(5.7405583,0,0,5.7405583,-55.877675,-1246.572)" />
    <linearGradient
       inkscape:collect="always"
       xlink:href="#linearGradient7"
       id="linearGradient8"
       x1="9.7551348"
       y1="265.30108"
       x2="11.581377"
       y2="265.30108"
       gradientUnits="userSpaceOnUse"
       gradientTransform="matrix(5.7405583,0,0,5.7405583,-53.761007,-1246.8297)" />
    <linearGradient
       inkscape:collect="always"
       xlink:href="#linearGradient10"
       id="linearGradient11"
       x1="20.881417"
       y1="265.14198"
       x2="21.481417"
       y2="265.14198"
       gradientUnits="userSpaceOnUse" />
    <linearGradient
       inkscape:collect="always"
       xlink:href="#linearGradient10"
       id="linearGradient12"
       gradientUnits="userSpaceOnUse"
       x1="20.881417"
       y1="265.14198"
       x2="21.481417"
       y2="265.14198" />
    <linearGradient
       inkscape:collect="always"
       xlink:href="#linearGradient10"
       id="linearGradient13"
       gradientUnits="userSpaceOnUse"
       x1="20.881417"
       y1="265.14198"
       x2="21.481417"
       y2="265.14198" />
    <linearGradient
       inkscape:collect="always"
       xlink:href="#linearGradient14"
       id="linearGradient15"
       x1="2.4053329"
       y1="289.8365"
       x2="31.609005"
       y2="289.8365"
       gradientUnits="userSpaceOnUse"
       gradientTransform="translate(9.0483092,0.73854587)" />
  </defs>
  <sodipodi:namedview
     id="base"
     pagecolor="#ffffff"
     bordercolor="#666666"
     borderopacity="1.0"
     inkscape:pageopacity="0.0"
     inkscape:pageshadow="2"
     inkscape:zoom="3.5824902"
     inkscape:cx="46.196916"
     inkscape:cy="11.165418"
     inkscape:document-units="mm"
     inkscape:current-layer="layer1"
     showgrid="false"
     units="px"
     inkscape:window-width="1646"
     inkscape:window-height="1025"
     inkscape:window-x="0"
     inkscape:window-y="0"
     inkscape:window-maximized="1"
     inkscape:showpageshadow="2"
     inkscape:pagecheckerboard="0"
     inkscape:deskcolor="#d1d1d1" />
  <metadata
     id="metadata5">
    <rdf:RDF>
      <cc:Work
         rdf:about="">
        <dc:format>image/svg+xml</dc:format>
        <dc:type
           rdf:resource="http://purl.org/dc/dcmitype/StillImage" />
      </cc:Work>
    </rdf:RDF>
  </metadata>
  <g
     inkscape:label="Layer 1"
     inkscape:groupmode="layer"
     id="layer1"
     transform="translate(0,-263.13334)">
    <text
       xml:space="preserve"
       style="font-style:normal;font-variant:normal;font-weight:bold;font-stretch:normal;font-size:3.175px;font-family:'DejaVu Sans';-inkscape-font-specification:'DejaVu Sans Bold';text-align:start;writing-mode:lr-tb;direction:ltr;text-anchor:start;fill:#0000ff;stroke:#008080;stroke-width:3;stroke-linejoin:bevel"
       x="21.860958"
       y="266.64142"
       id="text8"><tspan
         sodipodi:role="line"
         id="tspan8"
         style="stroke-width:3" /></text>
    <g
       id="g15"
       transform="matrix(1.0888414,0,0,1.0888414,-1.3805749,-24.407106)">
      <text
         xml:space="preserve"
         style="font-style:normal;font-variant:normal;font-weight:bold;font-stretch:normal;font-size:18.2262px;font-family:'DejaVu Sans';-inkscape-font-specification:'DejaVu Sans Bold';text-align:start;writing-mode:lr-tb;direction:ltr;text-anchor:start;fill:url(#linearGradient4);stroke-width:17.2217;stroke-linejoin:bevel"
         x="18.72401"
         y="283.03973"
         id="text3"><tspan
           sodipodi:role="line"
           id="tspan3"
           style="fill:url(#linearGradient4);stroke-width:17.2217"
           x="18.72401"
           y="283.03973">P</tspan></text>
      <path
         id="text1"
         style="font-weight:bold;font-size:3.175px;font-family:'DejaVu Sans';-inkscape-font-specification:'DejaVu Sans Bold';fill:url(#linearGradient8);stroke-width:17.2217;stroke-linejoin:bevel"
         d="m 9.9592957,269.02624 c -0.9584912,0.0171 -1.9511203,0.19032 -2.7543539,0.22737 -1.6064662,0.074 -2.8301738,0.35564 -3.6845296,1.06764 -0.8543791,0.71195 -1.2815755,1.72944 -1.2815755,3.05252 0,1.05609 0.3056408,1.89575 0.9167399,2.51871 0.6170356,0.62303 1.5901992,1.07695 2.9192017,1.36168 l 1.3260172,0.29404 c 0.8069041,0.17807 1.3437611,0.37952 1.6107544,0.60513 0.2729059,0.22549 0.4092774,0.54614 0.4092774,0.96118 0,0.4628 -0.1988128,0.81901 -0.5963461,1.06815 -0.3975164,0.24914 -0.9701606,0.37362 -1.7177246,0.37362 -0.7356927,0 -1.5009566,-0.11288 -2.2959839,-0.33848 -0.7890908,-0.2314 -1.6077553,-0.57198 -2.4561808,-1.02319 v 2.89233 c 0.8484255,0.31418 1.6966441,0.55194 2.5450643,0.7121 0.8484255,0.16014 1.6943054,0.24029 2.5367961,0.24029 1.7858419,0 3.1118307,-0.35563 3.9780527,-1.06763 0.87218,-0.71786 1.30793,-1.80975 1.30793,-3.27525 0,-1.11539 -0.31134,-1.97555 -0.93431,-2.58072 -0.622972,-0.60523 -1.673385,-1.05611 -3.1507124,-1.35289 L 7.1780701,274.4688 c -0.6941775,-0.14236 -1.1747792,-0.31171 -1.4417725,-0.50746 -0.2610237,-0.20178 -0.3911906,-0.48073 -0.3911906,-0.83665 0,-0.47469 0.1954806,-0.82445 0.5870443,-1.05006 0.3915806,-0.2256 0.9966345,-0.33797 1.8153931,-0.33797 0.6170357,0 1.2726399,0.6077 1.966805,0.7736 0.6941656,0.1659 1.4577296,0.69987 2.1363046,0.43925 0.550524,-0.21131 0.926298,-0.84745 1.049031,-1.4242 0.127096,-0.59741 0.06581,-1.38593 -0.392224,-1.79007 -0.665488,-0.58697 -1.589674,-0.72608 -2.5481653,-0.709 z m 1.0717693,0.81752 a 0.56210554,0.5246318 0 0 1 0.56224,0.52503 0.56210554,0.5246318 0 0 1 -0.56224,0.52452 0.56210554,0.5246318 0 0 1 -0.56224,-0.52452 0.56210554,0.5246318 0 0 1 0.56224,-0.52503 z" />
      <g
         id="g10"
         transform="matrix(5.7405584,0,0,5.7405584,-105.184,-1246.1471)"
         style="fill:url(#linearGradient11)">
        <ellipse
           style="fill:url(#linearGradient12);fill-opacity:1;stroke:none;stroke-width:2.71084;stroke-linejoin:bevel"
           id="path10"
           cx="21.181417"
           cy="264.17212"
           rx="0.30000001"
           ry="0.27108437" />
        <path
           style="font-weight:bold;font-size:3.175px;font-family:'DejaVu Sans';-inkscape-font-specification:'DejaVu Sans Bold';fill:url(#linearGradient13);fill-opacity:1;stroke-width:3;stroke-linejoin:bevel"
           d="m 20.903915,264.64661 h 0.555005 v 1.73632 h -0.555005 z"
           id="text9" />
      </g>
    </g>
    <text
       xml:space="preserve"
       style="font-style:normal;font-variant:normal;font-weight:bold;font-stretch:normal;font-size:6.02368px;font-family:'DejaVu Sans';-inkscape-font-specification:'DejaVu Sans Bold';text-align:start;writing-mode:lr-tb;direction:ltr;text-anchor:start;fill:url(#linearGradient15);stroke:none;stroke-width:5.69167;stroke-linejoin:bevel"
       x="10.953629"
       y="291.61182"
       id="text13"><tspan
         sodipodi:role="line"
         id="tspan13"
         style="fill:url(#linearGradient15);stroke-width:5.69167"
         x="10.953629"
         y="291.61182">UA</tspan></text>
  </g>
</svg>
